# xmcd CD database file
#
# Track frame offsets:
#	150
#	31964
#	47989
#	64988
#	81774
#	96173
#	109129
#	121740
#	135451
#	149974
#	164430
#	179327
#	193840
#	205628
#	217989
#	231356
#	243681
#	256861
#	270895
#	285037
#	299612
#
# Disc length: 4147 seconds
#
# Revision: 0
# Processed by: cddbd v1.5.1PL0 Copyright (c) Steve Scherf et al.
# Submitted via: CDex 1.51
#
DISCID=3e103115
DTITLE=Ella Fitzgerald - Viva!Jazz Diva!
DYEAR=2004
DGENRE=Jazz
TTITLE0=Bewitched
TTITLE1=Let's Do It (Let's Fall In Love)
TTITLE2=Can't We Be Friends
TTITLE3=My Romance
TTITLE4=Blue Moon
TTITLE5=Melancholy Me
TTITLE6=Careless
TTITLE7=Preview
TTITLE8=I Don't Want To Take A Chance
TTITLE9=I've Got A Crush On You
TTITLE10=Sentimental Journey
TTITLE11=Guilty
TTITLE12=(It's Only A) Paper Moon
TTITLE13=I'm Beginning To See The Light
TTITLE14=Once Too Often
TTITLE15=Mama Come Home
TTITLE16=This Love Of Mine
TTITLE17=I Must Have That Man
TTITLE18=Taking A Chance On Love
TTITLE19=All My Life
TTITLE20=I'll Chase The Blues Away
EXTD=YEAR: 2004
EXTT0=
EXTT1=
EXTT2=
EXTT3=
EXTT4=
EXTT5=
EXTT6=
EXTT7=
EXTT8=
EXTT9=
EXTT10=
EXTT11=
EXTT12=
EXTT13=
EXTT14=
EXTT15=
EXTT16=
EXTT17=
EXTT18=
EXTT19=
EXTT20=
PLAYORDER=
